<?xml version="1.0" encoding="utf-8"?>
<!-- Generator: Adobe Illustrator 16.0.0, SVG Export Plug-In . SVG Version: 6.00 Build 0)  -->
<!DOCTYPE svg PUBLIC "-//W3C//DTD SVG 1.1//EN" "http://www.w3.org/Graphics/SVG/1.1/DTD/svg11.dtd">
<svg version="1.1" id="Layer_1" xmlns="http://www.w3.org/2000/svg" xmlns:xlink="http://www.w3.org/1999/xlink" x="0px" y="0px"
	 width="95.236px" height="47.441px" viewBox="0 0 95.236 47.441" enable-background="new 0 0 95.236 47.441" xml:space="preserve">
<path fill="#FFFFFF" d="M89.645,10.645c-2.164-1.962-4.59-3.672-6.957-5.288c-2.387-1.629-4.945-2.93-7.678-3.901
	C72.276,0.486,69.347,0,66.219,0c-3.653,0-6.945,0.667-9.875,2c-2.932,1.333-5.408,3.16-7.432,5.481
	c-2.025,2.32-3.58,5.054-4.667,8.196c-1.087,3.145-1.63,6.527-1.63,10.148c0,2.199,0.226,4.374,0.649,6.527
	c-0.292,0.243-0.579,0.495-0.873,0.731c-0.772,0.625-1.53,1.178-2.271,1.654c-0.74,0.478-1.433,0.864-2.073,1.16
	c-0.642,0.296-1.21,0.444-1.704,0.444c-1.086,0-1.885-0.657-2.395-1.976c-0.512-1.316-0.767-2.995-0.767-5.037
	c0-1.218,0.074-2.551,0.224-4c0.147-1.448,0.337-2.914,0.566-4.395c0.229-1.481,0.485-2.93,0.767-4.346
	c0.278-1.415,0.533-2.716,0.765-3.9c0.229-1.187,0.42-2.206,0.567-3.062c0.148-0.854,0.224-1.464,0.224-1.827
	c0-2.436-0.486-4.345-1.457-5.728C33.867,0.691,32.559,0,30.912,0c-1.647,0-3.146,0.329-4.494,0.987
	c-1.351,0.659-2.551,1.876-3.604,3.654c-0.23,0.395-0.577,1.004-1.037,1.826c-0.462,0.823-0.973,1.771-1.53,2.84
	c-0.562,1.069-1.16,2.189-1.804,3.357c-1.147,2.092-2.378,4.183-3.34,6.368c-0.232,0.531-0.438,1.911-1.306,1.821
	c-0.804-0.083-0.509-1.414-0.45-1.908c0.198-1.69,0.614-3.379,0.874-5.064c0.164-1.068,0.321-2.122,0.469-3.126
	c0.148-1.004,0.272-1.934,0.37-2.772c0.101-0.839,0.148-1.51,0.148-2.003c0-1.811-0.347-3.262-1.037-4.349
	c-0.691-1.087-1.926-1.63-3.703-1.63s-3.186,0.511-4.223,1.53C5.209,2.552,4.51,3.82,4.148,5.333
	c-0.462,1.943-0.938,4.279-1.433,7.012c-0.493,2.733-0.938,5.572-1.333,8.519c-0.396,2.946-0.725,5.844-0.988,8.691
	C0.131,32.402,0,34.912,0,37.085c0,1.317,0.074,2.592,0.223,3.827c0.147,1.234,0.443,2.338,0.889,3.31
	c0.443,0.971,1.078,1.744,1.9,2.32c0.822,0.577,1.909,0.864,3.26,0.864c1.086,0,2.041-0.247,2.863-0.741
	c0.823-0.494,1.564-1.13,2.223-2.479c0.368-0.724,0.737-1.446,1.105-2.169c0.896-1.764,1.796-3.525,2.693-5.288
	c1.131-2.219,2.261-4.438,3.391-6.655c1.074-2.107,2.147-4.215,3.222-6.323c0.75-1.472,1.5-2.942,2.249-4.416
	c0.152-0.295,0.689-0.769,1.011-0.444c0.423,0.425-0.203,1.902-0.298,2.404c-0.282,1.52-0.456,3.061-0.633,4.595
	c-0.264,2.288-0.395,4.277-0.395,6.252c0,5.036,0.616,8.793,1.852,11.409c1.235,2.617,2.756,3.891,4.567,3.891
	c1.81,0,3.538-0.272,5.185-0.784c1.646-0.51,3.228-1.176,4.741-1.983c1.514-0.806,2.97-1.725,4.37-2.746
	c0.664-0.483,1.305-0.971,1.958-1.455c0.015,0.022,0.026,0.047,0.042,0.069c1.315,2.042,3.004,3.695,5.062,4.962
	c2.058,1.27,4.534,1.901,7.433,1.901c2.007,0,3.9-0.346,5.679-1.037s3.415-1.629,4.914-2.814c1.497-1.185,2.83-2.584,3.999-4.196
	c1.169-1.613,2.155-3.341,2.963-5.186c0.806-1.843,1.424-3.753,1.853-5.729c0.428-1.976,0.642-3.934,0.642-5.876
	s-0.238-3.976-0.715-6.1c-0.261-1.157-0.638-2.284-1.062-3.392c-0.214-0.557-0.44-1.11-0.67-1.662
	c-0.1-0.24-0.334-0.592-0.354-0.849c-0.085-1.047,1.062-0.305,1.478-0.042c4.628,2.925,9.561,6.325,13.211,10.452
	c4.204,4.762,5.474-1.534,3.444-4.865C93.04,14.057,91.431,12.265,89.645,10.645z M68.763,26.196c-0.478,2.091-1.111,4-1.901,5.728
	c-0.79,1.729-1.712,3.161-2.766,4.296c-1.054,1.136-2.141,1.704-3.259,1.704c-1.284,0-2.388-0.271-3.31-0.814
	c-0.922-0.543-1.662-1.268-2.222-2.173c-0.561-0.905-0.972-1.968-1.234-3.186c-0.264-1.217-0.396-2.518-0.396-3.9
	c0-2.009,0.263-4.1,0.79-6.271c0.526-2.173,1.25-4.156,2.173-5.95c0.921-1.794,1.991-3.267,3.21-4.419
	c1.217-1.151,2.501-1.729,3.853-1.729c1.02,0,1.893,0.279,2.616,0.839c0.725,0.56,1.316,1.317,1.777,2.271
	c0.461,0.956,0.807,2.083,1.037,3.384c0.229,1.301,0.346,2.708,0.346,4.222C69.479,22.106,69.239,24.106,68.763,26.196z"/>
</svg>
