<?xml version="1.0" encoding="utf-8"?>
<!-- Generator: Adobe Illustrator 16.0.0, SVG Export Plug-In . SVG Version: 6.00 Build 0)  -->
<!DOCTYPE svg PUBLIC "-//W3C//DTD SVG 1.1//EN" "http://www.w3.org/Graphics/SVG/1.1/DTD/svg11.dtd">
<svg version="1.1" id="Layer_1" xmlns="http://www.w3.org/2000/svg" xmlns:xlink="http://www.w3.org/1999/xlink" x="0px" y="0px"
	 width="95.237px" height="47.441px" viewBox="0 0 95.237 47.441" enable-background="new 0 0 95.237 47.441" xml:space="preserve">
<linearGradient id="SVGID_1_" gradientUnits="userSpaceOnUse" x1="0" y1="23.7207" x2="95.2368" y2="23.7207">
	<stop  offset="0" style="stop-color:#01A6E7"/>
	<stop  offset="1" style="stop-color:#4FCCFD"/>
</linearGradient>
<path fill="url(#SVGID_1_)" d="M89.645,10.645c-2.164-1.962-4.59-3.672-6.957-5.288c-2.387-1.629-4.946-2.929-7.678-3.901
	C72.276,0.486,69.347,0,66.219,0c-3.653,0-6.945,0.667-9.875,2c-2.932,1.333-5.408,3.16-7.432,5.481
	c-2.025,2.321-3.58,5.054-4.667,8.197c-1.087,3.144-1.63,6.527-1.63,10.148c0,2.199,0.226,4.374,0.65,6.527
	c-0.292,0.243-0.579,0.495-0.873,0.732c-0.773,0.625-1.53,1.177-2.271,1.654c-0.74,0.478-1.432,0.864-2.073,1.16
	c-0.642,0.296-1.21,0.445-1.704,0.445c-1.086,0-1.885-0.658-2.395-1.976c-0.511-1.316-0.766-2.995-0.766-5.037
	c0-1.218,0.074-2.551,0.223-4c0.148-1.448,0.337-2.914,0.567-4.395c0.229-1.481,0.485-2.929,0.766-4.345
	c0.279-1.415,0.534-2.716,0.765-3.901c0.23-1.186,0.42-2.206,0.568-3.062c0.148-0.855,0.223-1.464,0.223-1.827
	c0-2.436-0.486-4.345-1.457-5.728C33.867,0.691,32.559,0,30.912,0s-3.145,0.329-4.494,0.987c-1.35,0.659-2.551,1.876-3.604,3.654
	c-0.231,0.395-0.577,1.004-1.037,1.827c-0.462,0.823-0.973,1.77-1.531,2.839c-0.561,1.07-1.16,2.19-1.803,3.358
	c-1.148,2.092-2.378,4.182-3.34,6.368c-0.233,0.531-0.438,1.911-1.306,1.821c-0.804-0.083-0.509-1.414-0.45-1.908
	c0.198-1.69,0.614-3.379,0.874-5.064c0.164-1.069,0.321-2.122,0.469-3.126c0.148-1.004,0.272-1.934,0.37-2.773
	c0.1-0.839,0.148-1.51,0.148-2.003c0-1.81-0.346-3.261-1.037-4.348s-1.926-1.63-3.703-1.63s-3.186,0.51-4.223,1.53
	C5.209,2.552,4.51,3.82,4.148,5.333c-0.462,1.943-0.939,4.279-1.433,7.012c-0.493,2.733-0.938,5.572-1.333,8.518
	c-0.396,2.946-0.725,5.844-0.988,8.691C0.131,32.402,0,34.912,0,37.085c0,1.317,0.074,2.592,0.223,3.827
	c0.147,1.234,0.443,2.338,0.889,3.309c0.443,0.971,1.078,1.745,1.9,2.321c0.822,0.577,1.909,0.864,3.26,0.864
	c1.086,0,2.041-0.247,2.863-0.741c0.823-0.494,1.564-1.13,2.223-2.48c0.368-0.723,0.737-1.446,1.105-2.169
	c0.897-1.763,1.796-3.525,2.693-5.288c1.131-2.218,2.261-4.437,3.391-6.655c1.074-2.107,2.148-4.215,3.222-6.323
	c0.75-1.472,1.5-2.943,2.249-4.416c0.152-0.295,0.689-0.769,1.011-0.445c0.422,0.425-0.204,1.903-0.298,2.405
	c-0.283,1.519-0.456,3.06-0.633,4.594c-0.264,2.289-0.395,4.278-0.395,6.252c0,5.037,0.617,8.793,1.852,11.41s2.756,3.89,4.567,3.89
	c1.81,0,3.538-0.272,5.185-0.784c1.646-0.51,3.227-1.176,4.741-1.983c1.514-0.806,2.97-1.725,4.37-2.746
	c0.664-0.484,1.305-0.971,1.958-1.456c0.015,0.023,0.027,0.047,0.042,0.07c1.316,2.042,3.004,3.695,5.062,4.962
	c2.057,1.269,4.534,1.901,7.432,1.901c2.007,0,3.901-0.346,5.679-1.037s3.415-1.629,4.914-2.814c1.497-1.185,2.83-2.584,3.999-4.197
	c1.169-1.613,2.155-3.341,2.963-5.185c0.806-1.843,1.424-3.753,1.853-5.729c0.427-1.975,0.641-3.933,0.641-5.876
	c0-1.942-0.238-3.975-0.715-6.099c-0.26-1.158-0.637-2.285-1.062-3.392c-0.214-0.557-0.441-1.11-0.67-1.662
	c-0.1-0.24-0.334-0.592-0.355-0.849c-0.085-1.047,1.063-0.304,1.478-0.042c4.628,2.925,9.561,6.325,13.211,10.452
	c4.204,4.762,5.474-1.534,3.444-4.865C93.04,14.057,91.431,12.265,89.645,10.645z M68.763,26.196c-0.478,2.091-1.111,4-1.901,5.728
	c-0.79,1.729-1.712,3.161-2.766,4.296s-2.141,1.704-3.259,1.704c-1.284,0-2.388-0.271-3.309-0.815
	c-0.922-0.543-1.663-1.267-2.222-2.173c-0.561-0.905-0.972-1.967-1.234-3.185c-0.264-1.217-0.396-2.518-0.396-3.901
	c0-2.008,0.263-4.099,0.79-6.271c0.526-2.173,1.25-4.156,2.173-5.95c0.921-1.794,1.991-3.267,3.21-4.419
	c1.217-1.152,2.501-1.729,3.852-1.729c1.02,0,1.893,0.28,2.617,0.839c0.724,0.56,1.316,1.317,1.777,2.271
	c0.461,0.956,0.807,2.083,1.037,3.383c0.23,1.301,0.346,2.708,0.346,4.222C69.479,22.106,69.239,24.106,68.763,26.196z"/>
</svg>
