<?xml version="1.0" encoding="utf-8"?>
<!-- Generator: Adobe Illustrator 16.0.0, SVG Export Plug-In . SVG Version: 6.00 Build 0)  -->
<!DOCTYPE svg PUBLIC "-//W3C//DTD SVG 1.1//EN" "http://www.w3.org/Graphics/SVG/1.1/DTD/svg11.dtd">
<svg version="1.1" id="Layer_1" xmlns="http://www.w3.org/2000/svg" xmlns:xlink="http://www.w3.org/1999/xlink" x="0px" y="0px"
	 width="249.517px" height="38.283px" viewBox="0 0 249.517 38.283" enable-background="new 0 0 249.517 38.283"
	 xml:space="preserve">
<path fill="#CCCCCC" d="M201.808,5.684c-23.444-1.811-47.05-1.719-70.505-0.658c-21.851,0.989-43.638,2.994-65.418,5.016
	c-8.311,0.771-16.622,1.548-24.937,2.268c-6.558,0.569-15.307,0.848-23.029,2.702C13.5,16.073-1.42,22.881,0.681,28.71
	c1.078,2.989,7.371,0.893,9.774,0.396c38.04-7.871,75.734-15.702,114.985-16.996c29.428-0.97,58.918-0.466,88.284,1.78
	c7.833,0.599,25.972,8.625,32.69,2.362c5.084-4.741-5.07-6.227-7.609-6.523c-6.723-0.786-13.441-1.601-20.163-2.4
	C213.043,6.662,207.431,6.118,201.808,5.684z"/>
</svg>
