<?xml version="1.0" encoding="utf-8"?>
<!-- Generator: Adobe Illustrator 16.0.0, SVG Export Plug-In . SVG Version: 6.00 Build 0)  -->
<!DOCTYPE svg PUBLIC "-//W3C//DTD SVG 1.1//EN" "http://www.w3.org/Graphics/SVG/1.1/DTD/svg11.dtd">
<svg version="1.1" id="Layer_1" xmlns="http://www.w3.org/2000/svg" xmlns:xlink="http://www.w3.org/1999/xlink" x="0px" y="0px"
	 width="141.674px" height="93.23px" viewBox="0 0 141.674 93.23" enable-background="new 0 0 141.674 93.23" xml:space="preserve">
<path fill="#FFFFFF" d="M140.205,27.782c-1.11-0.521-2.49,0.122-3.475,0.657c-1.433,0.779-2.913,1.486-4.391,2.176
	c-1.479,0.691-2.905,1.358-4.271,2c-1.365,0.643-2.641,1.358-3.826,2.148c0-2.106-0.074-3.936-0.223-5.48
	c-0.148-1.548-0.348-2.914-0.592-4.1c-0.248-1.187-0.506-2.229-0.768-3.137c-0.266-0.904-0.521-1.762-0.768-2.566
	c-0.248-0.809-0.443-1.629-0.594-2.471c-0.146-0.84-0.221-1.77-0.221-2.788c0.098-0.362,0.484-0.913,1.16-1.654
	c0.674-0.741,1.391-1.558,2.148-2.444c0.756-0.889,1.445-1.811,2.07-2.766c0.625-0.954,0.938-1.827,0.938-2.617
	c0-0.396-0.031-0.863-0.1-1.407c-0.066-0.543-0.295-1.062-0.691-1.556c-0.395-0.494-1.02-0.913-1.875-1.259
	C123.879,0.173,122.662,0,121.082,0c-0.955,0-1.819,0.142-2.595,0.419c-0.772,0.28-1.479,0.644-2.122,1.086
	c-0.644,0.444-1.228,0.947-1.753,1.506c-0.526,0.562-1.006,1.139-1.434,1.729c-2.107,2.635-3.818,4.832-5.136,6.592
	c-1.317,1.762-2.438,3.252-3.356,4.47c-0.922,1.22-1.723,2.271-2.396,3.16c-0.675,0.892-1.424,1.771-2.246,2.644
	c-0.949,1.007-1.865,2.043-2.936,2.926c-1.146,0.945-2.371,1.789-3.57,2.662c-2.121,1.544-4.145,3.182-6.381,4.564
	c-0.57,0.354-1.147,0.697-1.73,1.031c-2.074,1.187-4.205,2.172-6.395,2.963c-2.189,0.789-4.271,1.187-6.247,1.187
	c-0.626,0-1.21-0.065-1.753-0.197c-0.543-0.132-1.062-0.362-1.555-0.691c-0.494-0.327-0.98-0.79-1.457-1.383
	c-0.479-0.593-0.963-1.333-1.457-2.222c2.863-0.791,5.521-1.895,7.975-3.311c2.452-1.416,4.568-3.027,6.346-4.84
	c1.778-1.811,3.168-3.734,4.174-5.775c1.002-2.041,1.506-4.082,1.506-6.123c0-1.877-0.33-3.572-0.986-5.086
	c-0.659-1.516-1.572-2.809-2.74-3.877c-1.17-1.069-2.544-1.9-4.124-2.494c-1.58-0.592-3.292-0.891-5.136-0.891
	c-2.271,0-4.338,0.403-6.197,1.21c-1.859,0.809-3.539,1.895-5.037,3.26c-1.498,1.365-2.807,2.945-3.926,4.739
	s-2.049,3.681-2.789,5.653c-0.741,1.979-1.293,3.992-1.654,6.05c-0.363,2.06-0.543,4.01-0.543,5.854c0,1.459,0.118,2.88,0.339,4.269
	c-0.297,0.369-0.597,0.748-0.883,1.09c-1.745,2.092-3.325,3.826-4.74,5.209c-1.416,1.385-2.7,2.486-3.852,3.311
	c-1.153,0.823-2.222,1.515-3.21,2.074c0.855-5.598,1.695-10.83,2.519-15.703c0.329-2.074,0.675-4.156,1.037-6.246
	c0.362-2.091,0.716-4.074,1.062-5.951c0.346-1.877,0.666-3.555,0.963-5.037c0.297-1.479,0.543-2.646,0.74-3.506
	c0.1-0.396,0.148-0.74,0.148-1.037c0-0.954-0.346-1.654-1.037-2.098C45.826,2.743,44.97,2.52,43.95,2.52
	c-0.856,0-1.762,0.146-2.716,0.443c-0.955,0.296-1.869,0.74-2.74,1.333c-0.873,0.595-1.646,1.325-2.322,2.198
	c-0.674,0.872-1.144,1.868-1.406,2.986L31.309,24c-0.132,1.055-0.42,2.37-0.864,3.95c-0.444,1.58-1.029,3.111-1.753,4.592
	c-0.725,1.482-1.58,2.75-2.568,3.804c-0.986,1.056-2.09,1.579-3.309,1.579c-0.757,0-1.382-0.188-1.876-0.565
	c-0.493-0.378-0.889-0.872-1.185-1.481c-0.297-0.607-0.502-1.301-0.617-2.073c-0.116-0.772-0.174-1.571-0.174-2.396
	c0-1.58,0.132-3.408,0.396-5.48c0.263-2.073,0.617-4.188,1.062-6.347c0.445-2.155,0.955-4.263,1.531-6.319
	c0.575-2.059,1.16-3.844,1.753-5.357c0.197-0.494,0.337-0.954,0.419-1.383s0.124-0.822,0.124-1.187c0-1.218-0.412-2.112-1.234-2.689
	c-0.823-0.575-1.812-0.864-2.963-0.864c-1.351,0-2.733,0.388-4.147,1.16c-1.416,0.772-2.503,1.9-3.26,3.383
	c-1.021,2.074-1.926,4.123-2.716,6.148c-0.79,2.022-1.449,4.122-1.976,6.296c-0.527,2.173-0.93,4.461-1.209,6.862
	c-0.281,2.402-0.42,5.036-0.42,7.9c0,2.173,0.346,4.123,1.037,5.852c0.691,1.729,1.612,3.193,2.766,4.396
	c1.151,1.203,2.477,2.123,3.975,2.766c1.498,0.645,3.037,0.963,4.617,0.963c1.811,0,3.679-0.483,5.604-1.457
	c1.926-0.971,3.777-2.245,5.556-3.824l-1.334,4.592c-2.37,1.94-4.715,3.98-7.037,6.123c-2.32,2.141-4.543,4.312-6.666,6.519
	c-2.123,2.205-4.091,4.419-5.9,6.644c-1.811,2.223-3.375,4.359-4.691,6.42C2.934,74.581,1.896,76.54,1.139,78.4
	C0.378,80.251,0,81.922,0,83.404c0,2.139,0.361,3.852,1.086,5.135c0.725,1.284,1.638,2.271,2.74,2.963
	c1.102,0.692,2.305,1.152,3.605,1.383c1.299,0.229,2.51,0.348,3.629,0.348c2.831,0,5.415-0.485,7.753-1.457
	c2.337-0.971,4.452-2.329,6.345-4.074c1.893-1.744,3.588-3.835,5.087-6.271c1.497-2.438,2.831-5.11,3.999-8.024
	c1.169-2.914,2.182-6.041,3.037-9.383c0.855-3.342,1.597-6.773,2.223-10.295c3.227-1.978,6.238-4.02,9.037-6.123
	c1.185-0.892,2.395-1.836,3.629-2.84c1.234-1.006,2.42-2.041,3.556-3.111c0.54-0.508,1.054-1.019,1.548-1.524
	c0.258,0.366,0.514,0.733,0.797,1.08c1.547,1.896,3.482,3.399,5.803,4.521s5.028,1.679,8.123,1.679c1.977,0,3.926-0.222,5.852-0.667
	c1.926-0.443,3.785-1.037,5.58-1.777c1.795-0.738,3.506-1.588,5.137-2.543c1.629-0.955,3.15-1.926,4.566-2.914
	c0.412-0.291,0.812-0.604,1.219-0.903c0.207,1.524,0.648,2.854,1.352,3.968c0.79,1.251,1.816,2.264,3.086,3.037
	c1.27,0.771,2.738,1.342,4.42,1.703c1.68,0.359,3.486,0.543,5.434,0.543c2.697,0,5.557-0.307,8.566-0.914
	c3.014-0.608,5.988-1.439,8.938-2.493c2.944-1.054,5.763-2.271,8.444-3.654c1.299-0.67,2.402-1.616,3.481-2.587
	c1.884-1.696,2.813-3.636,3.261-6.118c0.25-1.381,0.5-3.244-0.869-4.161C140.379,27.871,140.293,27.823,140.205,27.782z
	 M25.775,64.541c-0.461,1.678-1.02,3.398-1.678,5.16c-0.66,1.76-1.416,3.48-2.271,5.16c-0.857,1.679-1.803,3.176-2.84,4.493
	c-1.037,1.314-2.173,2.378-3.407,3.185c-1.235,0.809-2.544,1.211-3.926,1.211c-1.317,0-1.976-0.608-1.976-1.828
	c0-0.758,0.247-1.711,0.74-2.861c0.494-1.152,1.169-2.396,2.025-3.729c0.855-1.334,1.852-2.725,2.987-4.173
	c1.135-1.448,2.337-2.856,3.604-4.222c1.268-1.367,2.568-2.645,3.901-3.827c1.333-1.186,2.642-2.206,3.926-3.062
	C26.599,61.363,26.236,62.861,25.775,64.541z M65.527,21.579c0.065-1.021,0.205-2.073,0.42-3.16
	c0.213-1.087,0.525-2.165,0.938-3.232c0.413-1.069,0.955-2.024,1.631-2.864c0.674-0.84,1.514-1.522,2.518-2.049
	c1.004-0.527,2.214-0.791,3.629-0.791c0.791,0,1.457,0.479,2,1.433c0.544,0.955,0.814,2.173,0.814,3.654
	c0,1.054-0.412,2.14-1.233,3.259c-0.823,1.119-1.836,2.156-3.037,3.111c-1.202,0.955-2.503,1.734-3.901,2.346
	c-1.399,0.609-2.691,0.913-3.876,0.913C65.429,23.473,65.461,22.6,65.527,21.579z M113.082,34.689
	c-0.197,0.938-0.543,1.762-1.037,2.469c-0.494,0.709-1.161,1.277-2,1.704c-0.84,0.429-1.901,0.642-3.187,0.642
	c-1.055,0-1.991-0.246-2.813-0.738c-1.185-0.71-2.985-1.729-2.763-3.345c0.246-1.782,0.937-3.907,2.223-5.229
	c1.553-1.595,3.107-3.188,4.689-4.755c0.629-0.623,1.265-1.24,1.91-1.846c0.449-0.419,1.302-0.837,1.498-1.451
	c0.439,1.402,0.844,2.814,1.155,4.256c0.183,0.839,0.33,1.72,0.445,2.641c0.114,0.922,0.174,1.828,0.174,2.717
	C113.379,32.772,113.278,33.752,113.082,34.689z"/>
</svg>
